<svg width="653" height="623" viewBox="0 0 653 623" fill="none" xmlns="http://www.w3.org/2000/svg">
<rect width="277" height="445" rx="26" transform="matrix(0.236257 -0.971691 -0.971691 -0.236257 509.816 498.327)" fill="url(#paint0_linear_2_34)"/>
<rect width="277" height="445" rx="26" transform="matrix(0.236257 -0.971691 -0.971691 -0.236257 509.816 498.327)" fill="url(#paint1_linear_2_34)"/>
<g style="mix-blend-mode:overlay" filter="url(#filter0_d_2_34)">
<path d="M122.778 348.236C122.875 347.837 123.163 347.523 123.642 347.294C124.143 347.051 124.771 346.916 125.527 346.889C126.306 346.848 127.13 346.934 128.001 347.147C129.234 347.447 130.226 347.91 130.976 348.535C131.749 349.147 132.274 349.87 132.551 350.706C132.85 351.529 132.882 352.42 132.647 353.382C132.404 354.379 131.895 355.283 131.121 356.093C130.347 356.903 129.177 357.723 127.611 358.551L122.438 361.324L130.164 363.209C130.21 363.335 130.244 363.507 130.268 363.724C130.297 363.923 130.282 364.141 130.225 364.377C130.132 364.757 129.961 365.023 129.713 365.174C129.487 365.311 129.22 365.342 128.912 365.267L119.364 362.938C119.168 362.717 119.036 362.473 118.966 362.206C118.901 361.922 118.906 361.625 118.981 361.317C119.07 360.954 119.22 360.654 119.431 360.418C119.643 360.181 119.893 359.983 120.182 359.823L125.868 356.598C127.199 355.866 128.144 355.223 128.702 354.667C129.265 354.094 129.63 353.462 129.798 352.773C129.984 352.011 129.865 351.319 129.44 350.697C129.034 350.079 128.286 349.637 127.198 349.372C126.419 349.182 125.687 349.147 125.004 349.269C124.344 349.377 123.77 349.525 123.282 349.713C123.091 349.552 122.94 349.342 122.83 349.084C122.72 348.827 122.702 348.544 122.778 348.236ZM143.825 351.007C145.621 351.445 146.958 352.184 147.838 353.225C148.722 354.248 148.981 355.512 148.613 357.017C148.445 357.706 148.163 358.271 147.767 358.713C147.376 359.136 146.943 359.453 146.469 359.664C145.995 359.875 145.572 359.993 145.201 360.018C145.651 360.3 146.06 360.669 146.43 361.125C146.799 361.58 147.062 362.115 147.22 362.73C147.395 363.349 147.388 364.048 147.198 364.828C146.932 365.916 146.439 366.757 145.718 367.349C145.015 367.946 144.146 368.32 143.11 368.471C142.074 368.622 140.94 368.547 139.706 368.246C138.636 367.985 137.729 367.648 136.984 367.236C136.257 366.828 135.719 366.399 135.367 365.948C135.016 365.497 134.889 365.073 134.987 364.674C135.066 364.347 135.214 364.095 135.43 363.917C135.647 363.739 135.9 363.609 136.189 363.526C136.544 363.958 137.013 364.399 137.595 364.849C138.196 365.303 139.031 365.66 140.101 365.921C141.225 366.195 142.18 366.179 142.966 365.871C143.77 365.567 144.285 364.953 144.511 364.028C144.714 363.194 144.568 362.457 144.07 361.817C143.573 361.177 142.726 360.711 141.529 360.419L139.19 359.848C139.148 359.704 139.116 359.523 139.092 359.306C139.086 359.093 139.11 358.878 139.163 358.66C139.225 358.406 139.307 358.186 139.41 358C139.531 357.818 139.642 357.682 139.741 357.591L141.944 358.128C143.123 358.416 144.019 358.404 144.633 358.092C145.252 357.763 145.651 357.226 145.833 356.483C146.023 355.703 145.87 355.032 145.373 354.468C144.881 353.887 144.109 353.468 143.057 353.212C142.223 353.008 141.448 352.954 140.733 353.048C140.041 353.129 139.451 353.264 138.963 353.452C138.79 353.295 138.649 353.087 138.539 352.83C138.433 352.554 138.416 352.272 138.486 351.981C138.584 351.582 138.881 351.271 139.377 351.046C139.892 350.826 140.525 350.711 141.277 350.702C142.051 350.68 142.9 350.781 143.825 351.007ZM165.96 358.309C165.898 358.563 165.765 358.79 165.563 358.99C165.378 359.195 165.173 359.327 164.947 359.388C164.579 359.086 164.158 358.801 163.686 358.532C163.213 358.263 162.705 358.063 162.161 357.93C160.819 357.602 159.593 357.784 158.483 358.474C157.392 359.168 156.568 360.456 156.013 362.338C156.46 362.082 157.079 361.868 157.87 361.696C158.684 361.51 159.59 361.539 160.587 361.783C162.201 362.176 163.403 362.959 164.193 364.132C165.006 365.291 165.195 366.759 164.762 368.536C164.492 369.643 164.01 370.553 163.317 371.268C162.642 371.987 161.803 372.474 160.799 372.729C159.8 372.965 158.684 372.933 157.45 372.632C156.181 372.323 155.127 371.758 154.29 370.939C153.47 370.124 152.925 369.05 152.655 367.716C152.403 366.386 152.507 364.778 152.967 362.892C153.37 361.242 153.912 359.885 154.594 358.822C155.276 357.759 156.048 356.957 156.91 356.418C157.776 355.861 158.684 355.525 159.634 355.411C160.607 355.283 161.574 355.337 162.535 355.571C163.26 355.748 163.895 355.98 164.44 356.267C164.985 356.553 165.397 356.875 165.675 357.231C165.958 357.569 166.052 357.928 165.96 358.309ZM158.001 370.374C158.944 370.605 159.777 370.5 160.499 370.061C161.243 369.609 161.741 368.866 161.994 367.832C162.25 366.78 162.143 365.919 161.673 365.247C161.203 364.575 160.515 364.128 159.608 363.907C158.774 363.703 157.986 363.703 157.245 363.907C156.503 364.11 155.889 364.422 155.403 364.841L155.45 364.881C155.11 366.278 155.164 367.473 155.613 368.466C156.063 369.46 156.859 370.096 158.001 370.374ZM176.537 359.362L175.372 361.066L173.803 365.727C174.146 365.657 174.588 365.621 175.126 365.618C175.67 365.596 176.24 365.659 176.839 365.805C177.963 366.079 178.898 366.538 179.645 367.181C180.413 367.81 180.945 368.584 181.24 369.501C181.535 370.419 181.545 371.439 181.271 372.564C181.019 373.597 180.544 374.481 179.847 375.214C179.172 375.933 178.303 376.422 177.24 376.682C176.196 376.946 174.976 376.908 173.579 376.567C172.527 376.31 171.631 375.967 170.891 375.536C170.169 375.11 169.625 374.661 169.26 374.187C168.918 373.7 168.795 373.257 168.893 372.859C168.977 372.514 169.156 372.25 169.431 372.068C169.711 371.867 169.982 371.741 170.244 371.69C170.573 372.154 171.04 372.643 171.645 373.155C172.25 373.668 173.051 374.046 174.048 374.289C175.209 374.572 176.173 374.481 176.94 374.015C177.711 373.53 178.212 372.817 178.442 371.874C178.681 370.894 178.559 370.058 178.075 369.363C177.595 368.65 176.821 368.164 175.751 367.903C175.152 367.757 174.595 367.717 174.079 367.783C173.564 367.849 173.05 367.945 172.539 368.07C171.968 367.893 171.538 367.605 171.251 367.208C170.982 366.816 170.911 366.357 171.039 365.831C171.061 365.74 171.09 365.623 171.126 365.477C171.184 365.319 171.244 365.151 171.306 364.974L172.949 360.129C173.1 359.667 173.336 359.33 173.656 359.12C173.981 358.892 174.379 358.835 174.851 358.95L176.537 359.362ZM174.674 361.328L175.231 359.043L183.066 360.954C183.112 361.081 183.138 361.25 183.143 361.463C183.172 361.662 183.157 361.88 183.1 362.115C183.007 362.496 182.843 362.773 182.609 362.947C182.378 363.102 182.1 363.14 181.774 363.06L174.674 361.328ZM200.866 365.297L199.701 367.001L198.132 371.662C198.475 371.592 198.917 371.556 199.455 371.553C199.999 371.531 200.569 371.594 201.168 371.74C202.292 372.014 203.227 372.473 203.974 373.116C204.742 373.745 205.274 374.519 205.569 375.436C205.864 376.354 205.874 377.374 205.6 378.499C205.348 379.533 204.873 380.416 204.176 381.149C203.501 381.868 202.632 382.357 201.569 382.617C200.525 382.881 199.305 382.843 197.908 382.502C196.857 382.245 195.96 381.902 195.22 381.471C194.498 381.045 193.954 380.596 193.589 380.123C193.247 379.636 193.124 379.193 193.222 378.794C193.306 378.449 193.485 378.185 193.76 378.003C194.04 377.802 194.311 377.676 194.573 377.625C194.902 378.089 195.369 378.578 195.974 379.09C196.579 379.603 197.38 379.981 198.378 380.224C199.538 380.507 200.502 380.416 201.269 379.95C202.04 379.465 202.541 378.752 202.771 377.809C203.01 376.829 202.888 375.993 202.404 375.298C201.924 374.586 201.15 374.099 200.08 373.838C199.481 373.692 198.924 373.652 198.408 373.718C197.893 373.785 197.379 373.88 196.868 374.005C196.297 373.828 195.867 373.54 195.58 373.143C195.311 372.751 195.24 372.292 195.368 371.766C195.39 371.675 195.419 371.558 195.455 371.412C195.513 371.254 195.573 371.086 195.635 370.909L197.278 366.064C197.429 365.602 197.665 365.265 197.985 365.055C198.31 364.827 198.708 364.77 199.18 364.885L200.866 365.297ZM199.003 367.263L199.561 364.978L207.395 366.889C207.441 367.016 207.467 367.186 207.472 367.398C207.501 367.597 207.486 367.815 207.429 368.05C207.336 368.431 207.172 368.708 206.938 368.882C206.708 369.037 206.429 369.075 206.103 368.995L199.003 367.263ZM215.643 386.828C214.391 386.523 213.332 386.063 212.463 385.447C211.613 384.837 211.012 384.113 210.658 383.278C210.309 382.424 210.259 381.489 210.506 380.474C210.723 379.585 211.118 378.874 211.689 378.342C212.261 377.809 212.92 377.431 213.666 377.21C214.412 376.988 215.145 376.898 215.865 376.939L217.638 376.997C218.874 377.049 219.847 376.921 220.556 376.614C221.269 376.288 221.719 375.744 221.904 374.983C222.09 374.221 221.955 373.554 221.499 372.982C221.043 372.409 220.316 372.001 219.319 371.758C218.376 371.528 217.559 371.569 216.868 371.881C216.182 372.174 215.75 372.684 215.573 373.409C215.423 374.026 215.464 374.565 215.698 375.025C215.949 375.49 216.332 375.891 216.845 376.227C217.359 376.564 217.942 376.85 218.596 377.087L220.007 378.036C220.679 378.354 221.286 378.78 221.827 379.316C222.392 379.838 222.798 380.456 223.047 381.17C223.318 381.87 223.341 382.682 223.115 383.607C222.876 384.587 222.396 385.373 221.675 385.965C220.977 386.544 220.109 386.909 219.074 387.06C218.038 387.211 216.894 387.133 215.643 386.828ZM216.18 384.625C217.25 384.886 218.167 384.869 218.93 384.575C219.698 384.263 220.191 383.663 220.407 382.774C220.637 381.831 220.404 380.977 219.707 380.211C219.014 379.427 217.981 378.819 216.606 378.388L215.406 377.519C214.407 376.968 213.67 376.288 213.194 375.481C212.723 374.655 212.616 373.716 212.873 372.664C213.103 371.721 213.544 370.974 214.198 370.422C214.851 369.871 215.666 369.522 216.643 369.376C217.625 369.212 218.696 369.272 219.857 369.555C221.688 370.002 223.03 370.761 223.883 371.834C224.736 372.907 224.987 374.159 224.638 375.592C224.364 376.716 223.784 377.516 222.9 377.992C222.037 378.455 221.054 378.666 219.949 378.627L217.81 378.653C216.623 378.556 215.624 378.715 214.811 379.132C214.021 379.535 213.518 380.181 213.301 381.069C213.093 381.921 213.249 382.661 213.769 383.287C214.288 383.914 215.092 384.359 216.18 384.625ZM235.833 373.452C237.628 373.89 238.966 374.63 239.845 375.67C240.73 376.693 240.988 377.957 240.621 379.462C240.453 380.151 240.171 380.717 239.775 381.158C239.383 381.581 238.951 381.898 238.476 382.109C238.002 382.32 237.58 382.438 237.208 382.463C237.658 382.746 238.068 383.114 238.437 383.57C238.806 384.025 239.07 384.56 239.227 385.175C239.403 385.794 239.396 386.493 239.205 387.273C238.94 388.361 238.447 389.202 237.726 389.794C237.023 390.391 236.153 390.765 235.117 390.916C234.082 391.067 232.947 390.992 231.714 390.691C230.644 390.43 229.736 390.093 228.992 389.681C228.265 389.273 227.726 388.844 227.375 388.393C227.024 387.943 226.897 387.518 226.994 387.119C227.074 386.792 227.222 386.54 227.438 386.362C227.654 386.185 227.907 386.054 228.196 385.971C228.552 386.404 229.021 386.845 229.603 387.294C230.203 387.748 231.038 388.105 232.108 388.366C233.232 388.641 234.188 388.624 234.974 388.316C235.778 388.013 236.293 387.398 236.518 386.474C236.722 385.639 236.575 384.902 236.078 384.262C235.581 383.622 234.734 383.156 233.537 382.864L231.197 382.293C231.156 382.149 231.123 381.968 231.099 381.751C231.093 381.538 231.117 381.323 231.17 381.105C231.232 380.851 231.315 380.631 231.418 380.445C231.539 380.263 231.649 380.127 231.748 380.036L233.952 380.573C235.13 380.861 236.027 380.849 236.641 380.537C237.259 380.208 237.659 379.671 237.84 378.928C238.03 378.148 237.877 377.477 237.381 376.914C236.888 376.332 236.116 375.913 235.064 375.657C234.23 375.453 233.456 375.399 232.741 375.494C232.049 375.574 231.459 375.709 230.971 375.898C230.798 375.74 230.656 375.533 230.546 375.275C230.44 375 230.423 374.717 230.494 374.427C230.591 374.028 230.888 373.716 231.385 373.491C231.9 373.271 232.533 373.156 233.284 373.148C234.058 373.125 234.908 373.227 235.833 373.452ZM246.871 378.508C246.968 378.109 247.256 377.795 247.735 377.566C248.236 377.323 248.865 377.188 249.621 377.162C250.399 377.121 251.224 377.207 252.094 377.419C253.327 377.72 254.319 378.183 255.07 378.808C255.843 379.419 256.368 380.143 256.644 380.979C256.943 381.801 256.975 382.693 256.741 383.654C256.497 384.651 255.989 385.555 255.215 386.366C254.441 387.176 253.27 387.995 251.704 388.824L246.531 391.597L254.257 393.481C254.303 393.608 254.338 393.78 254.362 393.997C254.39 394.196 254.375 394.413 254.318 394.649C254.225 395.03 254.054 395.296 253.806 395.446C253.581 395.584 253.314 395.615 253.006 395.539L243.458 393.21C243.262 392.989 243.129 392.746 243.059 392.479C242.994 392.194 243 391.898 243.075 391.589C243.163 391.227 243.313 390.927 243.525 390.69C243.736 390.454 243.986 390.255 244.275 390.095L249.961 386.871C251.293 386.139 252.237 385.495 252.796 384.94C253.358 384.366 253.724 383.735 253.892 383.045C254.078 382.284 253.958 381.592 253.534 380.969C253.127 380.351 252.38 379.91 251.292 379.644C250.512 379.454 249.781 379.42 249.098 379.541C248.437 379.649 247.863 379.797 247.375 379.986C247.184 379.824 247.034 379.614 246.923 379.357C246.813 379.099 246.796 378.817 246.871 378.508ZM273.041 400.83C271.789 400.525 270.73 400.065 269.861 399.45C269.011 398.839 268.409 398.115 268.056 397.28C267.707 396.426 267.656 395.492 267.904 394.476C268.121 393.587 268.515 392.877 269.087 392.344C269.659 391.811 270.318 391.433 271.064 391.212C271.81 390.99 272.543 390.9 273.263 390.941L275.035 390.999C276.272 391.051 277.244 390.923 277.953 390.616C278.667 390.29 279.117 389.747 279.302 388.985C279.488 388.223 279.353 387.556 278.897 386.984C278.441 386.411 277.714 386.004 276.717 385.76C275.774 385.53 274.957 385.571 274.266 385.883C273.58 386.177 273.148 386.686 272.971 387.412C272.82 388.028 272.862 388.567 273.096 389.027C273.347 389.492 273.73 389.893 274.243 390.229C274.757 390.566 275.34 390.852 275.994 391.089L277.405 392.038C278.077 392.356 278.683 392.782 279.225 393.318C279.79 393.84 280.196 394.458 280.445 395.172C280.716 395.872 280.738 396.685 280.513 397.61C280.274 398.589 279.794 399.375 279.073 399.967C278.375 400.546 277.507 400.911 276.471 401.062C275.436 401.213 274.292 401.136 273.041 400.83ZM273.578 398.627C274.648 398.888 275.565 398.871 276.328 398.577C277.096 398.265 277.588 397.665 277.805 396.776C278.035 395.833 277.802 394.979 277.105 394.213C276.412 393.429 275.379 392.822 274.004 392.39L272.804 391.521C271.805 390.97 271.068 390.291 270.592 389.483C270.121 388.657 270.014 387.718 270.271 386.666C270.501 385.723 270.942 384.976 271.596 384.425C272.249 383.873 273.064 383.524 274.041 383.378C275.023 383.214 276.094 383.274 277.254 383.557C279.086 384.004 280.428 384.763 281.281 385.836C282.134 386.909 282.385 388.161 282.036 389.594C281.762 390.718 281.182 391.519 280.297 391.995C279.435 392.457 278.452 392.668 277.347 392.629L275.208 392.655C274.021 392.558 273.021 392.717 272.209 393.134C271.419 393.537 270.916 394.183 270.699 395.071C270.491 395.924 270.647 396.663 271.166 397.289C271.686 397.916 272.49 398.362 273.578 398.627ZM285.617 396.578L295.561 388.426C295.792 388.425 296.038 388.437 296.301 388.463C296.582 388.493 296.822 388.532 297.022 388.581C297.348 388.661 297.645 388.781 297.913 388.943C298.181 389.104 298.377 389.325 298.501 389.605C298.648 389.871 298.668 390.222 298.562 390.657L296.372 399.634L298.956 400.264C298.979 400.404 299.003 400.583 299.027 400.8C299.055 400.999 299.041 401.217 298.983 401.452C298.89 401.833 298.729 402.101 298.499 402.257C298.269 402.412 297.99 402.45 297.664 402.37L295.814 401.919L294.872 405.781C294.754 405.791 294.573 405.785 294.329 405.764C294.079 405.761 293.837 405.731 293.601 405.673C293.13 405.558 292.787 405.388 292.573 405.163C292.363 404.92 292.312 404.58 292.418 404.145L293.121 401.262L285.586 399.424C285.381 399.239 285.221 398.989 285.106 398.673C285.014 398.343 285.012 397.996 285.101 397.634C285.149 397.434 285.214 397.248 285.294 397.076C285.379 396.885 285.487 396.719 285.617 396.578ZM293.76 398.997L295.679 391.251L295.624 391.237L288.32 397.669L293.76 398.997ZM305.597 392.834C305.695 392.435 305.983 392.121 306.461 391.892C306.962 391.65 307.591 391.515 308.347 391.488C309.125 391.447 309.95 391.533 310.82 391.745C312.053 392.046 313.045 392.509 313.796 393.134C314.569 393.745 315.094 394.469 315.37 395.305C315.669 396.127 315.701 397.019 315.467 397.98C315.224 398.978 314.715 399.881 313.941 400.692C313.167 401.502 311.996 402.321 310.43 403.15L305.258 405.923L312.983 407.807C313.029 407.934 313.064 408.106 313.088 408.323C313.116 408.522 313.102 408.739 313.044 408.975C312.951 409.356 312.781 409.622 312.532 409.773C312.307 409.91 312.04 409.941 311.732 409.866L302.184 407.536C301.988 407.316 301.855 407.072 301.786 406.805C301.721 406.52 301.726 406.224 301.801 405.915C301.889 405.553 302.039 405.253 302.251 405.016C302.462 404.78 302.712 404.581 303.001 404.421L308.687 401.197C310.019 400.465 310.964 399.821 311.522 399.266C312.084 398.692 312.45 398.061 312.618 397.372C312.804 396.61 312.684 395.918 312.26 395.296C311.853 394.678 311.106 394.236 310.018 393.971C309.238 393.78 308.507 393.746 307.824 393.868C307.163 393.975 306.589 394.124 306.101 394.312C305.91 394.15 305.76 393.94 305.65 393.683C305.539 393.426 305.522 393.143 305.597 392.834ZM323.853 413.226C322.601 412.921 321.541 412.46 320.673 411.845C319.823 411.234 319.221 410.511 318.868 409.675C318.519 408.822 318.468 407.887 318.716 406.872C318.933 405.983 319.327 405.272 319.899 404.739C320.471 404.206 321.13 403.829 321.876 403.607C322.622 403.386 323.354 403.296 324.075 403.337L325.847 403.395C327.084 403.446 328.056 403.319 328.765 403.011C329.479 402.686 329.928 402.142 330.114 401.38C330.3 400.619 330.165 399.952 329.709 399.379C329.253 398.807 328.526 398.399 327.529 398.156C326.586 397.926 325.769 397.967 325.078 398.278C324.391 398.572 323.96 399.082 323.783 399.807C323.632 400.424 323.674 400.962 323.907 401.423C324.159 401.888 324.542 402.288 325.055 402.625C325.569 402.962 326.152 403.248 326.805 403.484L328.217 404.434C328.888 404.751 329.495 405.178 330.037 405.714C330.602 406.236 331.008 406.854 331.257 407.567C331.528 408.268 331.55 409.08 331.325 410.005C331.086 410.984 330.606 411.77 329.885 412.363C329.186 412.942 328.319 413.307 327.283 413.458C326.247 413.608 325.104 413.531 323.853 413.226ZM324.39 411.023C325.46 411.284 326.377 411.267 327.14 410.973C327.908 410.661 328.4 410.06 328.617 409.172C328.847 408.229 328.614 407.374 327.917 406.609C327.224 405.825 326.191 405.217 324.816 404.786L323.616 403.917C322.617 403.365 321.88 402.686 321.404 401.878C320.933 401.053 320.826 400.114 321.082 399.062C321.313 398.119 321.754 397.372 322.408 396.82C323.061 396.268 323.876 395.92 324.853 395.774C325.835 395.61 326.906 395.669 328.066 395.952C329.898 396.399 331.24 397.159 332.093 398.232C332.946 399.304 333.197 400.557 332.848 401.99C332.574 403.114 331.994 403.914 331.109 404.39C330.247 404.852 329.264 405.064 328.159 405.025L326.02 405.051C324.833 404.953 323.833 405.113 323.021 405.53C322.231 405.932 321.727 406.578 321.511 407.467C321.303 408.319 321.459 409.059 321.978 409.685C322.498 410.311 323.302 410.757 324.39 411.023ZM351.281 401.99L350.116 403.695L348.547 408.356C348.89 408.286 349.331 408.249 349.87 408.246C350.413 408.225 350.984 408.287 351.583 408.433C352.707 408.708 353.642 409.166 354.388 409.81C355.157 410.439 355.689 411.212 355.984 412.13C356.279 413.047 356.289 414.068 356.015 415.192C355.763 416.226 355.288 417.109 354.59 417.842C353.915 418.561 353.047 419.051 351.984 419.31C350.94 419.574 349.72 419.536 348.323 419.195C347.271 418.939 346.375 418.595 345.635 418.165C344.912 417.739 344.369 417.289 344.004 416.816C343.662 416.329 343.539 415.886 343.636 415.487C343.721 415.143 343.9 414.879 344.175 414.696C344.455 414.495 344.726 414.369 344.988 414.318C345.317 414.783 345.784 415.271 346.389 415.784C346.994 416.296 347.795 416.674 348.792 416.918C349.953 417.201 350.917 417.109 351.684 416.643C352.455 416.159 352.956 415.445 353.186 414.502C353.425 413.523 353.302 412.686 352.819 411.992C352.339 411.279 351.564 410.792 350.494 410.531C349.896 410.385 349.339 410.345 348.823 410.412C348.307 410.478 347.794 410.574 347.283 410.699C346.712 410.521 346.282 410.234 345.995 409.837C345.725 409.445 345.655 408.986 345.783 408.46C345.805 408.369 345.834 408.251 345.869 408.106C345.927 407.947 345.988 407.779 346.05 407.602L347.693 402.758C347.844 402.295 348.08 401.959 348.4 401.749C348.725 401.52 349.123 401.464 349.594 401.579L351.281 401.99ZM349.418 403.957L349.975 401.672L357.81 403.583C357.856 403.709 357.881 403.879 357.887 404.092C357.915 404.291 357.901 404.508 357.843 404.744C357.75 405.125 357.587 405.402 357.352 405.575C357.122 405.731 356.844 405.768 356.518 405.689L349.418 403.957ZM374.516 409.186C374.454 409.44 374.322 409.667 374.119 409.867C373.935 410.072 373.73 410.205 373.503 410.265C373.135 409.964 372.715 409.678 372.242 409.409C371.77 409.141 371.262 408.94 370.718 408.807C369.376 408.48 368.15 408.661 367.04 409.351C365.948 410.045 365.125 411.333 364.57 413.216C365.016 412.959 365.635 412.745 366.427 412.573C367.241 412.388 368.146 412.416 369.144 412.66C370.758 413.053 371.96 413.837 372.75 415.009C373.562 416.168 373.752 417.636 373.318 419.413C373.048 420.52 372.567 421.43 371.873 422.145C371.198 422.864 370.359 423.351 369.356 423.606C368.356 423.842 367.24 423.81 366.007 423.509C364.737 423.2 363.684 422.635 362.846 421.816C362.027 421.001 361.482 419.927 361.212 418.593C360.959 417.263 361.063 415.655 361.524 413.769C361.926 412.119 362.469 410.762 363.151 409.699C363.833 408.636 364.605 407.834 365.466 407.295C366.332 406.738 367.24 406.402 368.191 406.288C369.163 406.161 370.13 406.214 371.091 406.448C371.817 406.625 372.452 406.857 372.997 407.144C373.542 407.43 373.953 407.752 374.231 408.108C374.514 408.446 374.609 408.805 374.516 409.186ZM366.558 421.252C367.501 421.482 368.333 421.377 369.055 420.939C369.8 420.486 370.298 419.743 370.55 418.709C370.807 417.658 370.7 416.796 370.23 416.124C369.759 415.452 369.071 415.005 368.164 414.784C367.33 414.581 366.542 414.581 365.801 414.784C365.06 414.987 364.446 415.299 363.959 415.718L364.007 415.759C363.666 417.155 363.721 418.35 364.17 419.343C364.619 420.337 365.415 420.973 366.558 421.252ZM391.701 413.378C391.639 413.632 391.507 413.859 391.304 414.06C391.12 414.264 390.915 414.397 390.689 414.457C390.32 414.156 389.9 413.871 389.427 413.602C388.955 413.333 388.447 413.132 387.903 412.999C386.561 412.672 385.335 412.853 384.225 413.543C383.134 414.238 382.31 415.526 381.755 417.408C382.202 417.152 382.821 416.938 383.612 416.766C384.426 416.58 385.331 416.609 386.329 416.852C387.943 417.246 389.145 418.029 389.935 419.202C390.747 420.36 390.937 421.829 390.503 423.606C390.233 424.712 389.752 425.622 389.059 426.337C388.384 427.056 387.544 427.543 386.541 427.798C385.542 428.035 384.425 428.003 383.192 427.702C381.923 427.392 380.869 426.828 380.031 426.008C379.212 425.194 378.667 424.119 378.397 422.785C378.145 421.456 378.249 419.848 378.709 417.962C379.111 416.311 379.654 414.955 380.336 413.891C381.018 412.828 381.79 412.027 382.651 411.488C383.518 410.93 384.426 410.595 385.376 410.481C386.348 410.353 387.315 410.406 388.276 410.641C389.002 410.818 389.637 411.049 390.182 411.336C390.727 411.623 391.138 411.944 391.417 412.3C391.699 412.638 391.794 412.997 391.701 413.378ZM383.743 425.444C384.686 425.674 385.518 425.57 386.24 425.131C386.985 424.678 387.483 423.935 387.735 422.902C387.992 421.85 387.885 420.988 387.415 420.316C386.945 419.644 386.256 419.198 385.35 418.976C384.515 418.773 383.728 418.773 382.986 418.976C382.245 419.18 381.631 419.491 381.144 419.91L381.192 419.951C380.851 421.347 380.906 422.542 381.355 423.536C381.805 424.529 382.6 425.165 383.743 425.444ZM400.375 431.893C399.124 431.588 398.064 431.128 397.196 430.513C396.345 429.902 395.744 429.179 395.39 428.343C395.041 427.489 394.991 426.555 395.239 425.539C395.455 424.651 395.85 423.94 396.422 423.407C396.994 422.874 397.652 422.497 398.398 422.275C399.144 422.053 399.877 421.963 400.597 422.004L402.37 422.062C403.606 422.114 404.579 421.986 405.288 421.679C406.001 421.353 406.451 420.81 406.637 420.048C406.822 419.286 406.687 418.619 406.231 418.047C405.775 417.475 405.049 417.067 404.051 416.823C403.108 416.593 402.291 416.634 401.6 416.946C400.914 417.24 400.482 417.749 400.305 418.475C400.155 419.091 400.196 419.63 400.43 420.09C400.681 420.555 401.064 420.956 401.578 421.292C402.091 421.629 402.675 421.916 403.328 422.152L404.739 423.101C405.411 423.419 406.018 423.846 406.56 424.381C407.124 424.903 407.53 425.521 407.779 426.235C408.05 426.935 408.073 427.748 407.847 428.673C407.608 429.652 407.128 430.438 406.407 431.031C405.709 431.61 404.842 431.974 403.806 432.125C402.77 432.276 401.626 432.199 400.375 431.893ZM400.912 429.69C401.982 429.951 402.899 429.935 403.663 429.64C404.43 429.328 404.923 428.728 405.14 427.839C405.37 426.896 405.136 426.042 404.439 425.276C403.746 424.492 402.713 423.885 401.339 423.453L400.138 422.584C399.139 422.033 398.402 421.354 397.927 420.546C397.455 419.72 397.348 418.781 397.605 417.729C397.835 416.786 398.277 416.039 398.93 415.488C399.583 414.936 400.398 414.587 401.376 414.441C402.357 414.277 403.428 414.337 404.589 414.62C406.42 415.067 407.763 415.827 408.615 416.899C409.468 417.972 409.72 419.225 409.37 420.657C409.096 421.782 408.516 422.582 407.632 423.058C406.77 423.52 405.786 423.731 404.681 423.692L402.542 423.718C401.355 423.621 400.356 423.78 399.543 424.197C398.753 424.6 398.25 425.246 398.033 426.134C397.825 426.987 397.981 427.726 398.501 428.352C399.02 428.979 399.824 429.425 400.912 429.69Z" fill="#CECECE"/>
</g>
<path d="M499.464 252.98L499.394 252.963C498.037 253.689 496.841 254.686 495.883 255.893C494.868 257.171 494.143 258.654 493.758 260.24L493.758 260.242C493.369 261.826 493.33 263.476 493.642 265.077C493.954 266.678 494.61 268.193 495.565 269.516L496.194 270.388L495.158 270.677C493.266 271.205 491.268 271.228 489.363 270.745C487.459 270.262 485.714 269.29 484.302 267.924C482.89 266.558 481.86 264.847 481.314 262.96C480.769 261.074 480.727 259.077 481.193 257.17C481.659 255.262 482.616 253.51 483.97 252.087C485.324 250.664 487.026 249.621 488.909 249.059C490.792 248.498 492.789 248.439 494.701 248.889C496.614 249.338 498.376 250.28 499.812 251.62L500.79 252.533L500.674 252.372L501.71 252.083C503.602 251.554 505.6 251.53 507.504 252.012C509.409 252.494 511.154 253.466 512.567 254.831C513.98 256.196 515.011 257.907 515.557 259.793C516.104 261.679 516.146 263.676 515.682 265.583C515.217 267.491 514.26 269.244 512.907 270.667C511.554 272.091 509.852 273.136 507.97 273.698C506.087 274.26 504.09 274.32 502.177 273.871C500.329 273.438 498.621 272.545 497.212 271.277L495.422 270.84L497.238 269.924C498.694 269.189 499.974 268.147 500.989 266.869C502.003 265.591 502.727 264.109 503.112 262.524L503.113 262.522C503.501 260.937 503.541 259.287 503.228 257.685C502.933 256.172 502.331 254.737 501.46 253.467L501.39 253.45C502.227 254.659 502.819 256.022 503.131 257.463C503.491 259.128 503.468 260.854 503.063 262.508M499.464 252.98L503.063 262.508M499.464 252.98C498.166 253.668 497.013 254.605 496.072 255.74C494.986 257.052 494.212 258.594 493.809 260.249M499.464 252.98L503.063 262.508M503.063 262.508C502.66 264.163 501.886 265.704 500.8 267.015C499.713 268.327 498.342 269.374 496.79 270.078L496.255 270.321L495.891 269.859C494.838 268.519 494.103 266.958 493.742 265.293C493.382 263.628 493.404 261.903 493.809 260.249M493.809 260.249C493.809 260.249 493.809 260.248 493.809 260.248L494.538 260.426L493.809 260.249C493.809 260.249 493.809 260.249 493.809 260.249ZM500.541 253.243L500.392 253.36L500.314 253.188L500.541 253.243Z" fill="white" fill-opacity="0.2" stroke="white" stroke-width="1.5"/>
<g opacity="0.8">
<path d="M465.815 430.872C466.702 432.298 467.297 433.882 467.566 435.532C467.835 437.182 467.773 438.867 467.384 440.49C466.994 442.113 466.285 443.643 465.296 444.992C464.307 446.34 463.059 447.482 461.621 448.35L460.199 446.062C462.491 444.677 464.127 442.445 464.747 439.858C465.368 437.27 464.923 434.539 463.51 432.265L465.815 430.872ZM458.122 432.918C459.158 434.586 459.485 436.589 459.029 438.486C458.574 440.384 457.374 442.02 455.694 443.036L454.273 440.75C454.803 440.43 455.263 440.009 455.627 439.513C455.991 439.016 456.252 438.452 456.396 437.854C456.539 437.256 456.562 436.636 456.463 436.028C456.364 435.42 456.145 434.836 455.818 434.311L458.122 432.918Z" fill="white"/>
<path d="M474.4 430.214C475.132 431.925 475.576 433.854 475.706 435.891C475.835 437.927 475.649 440.032 475.156 442.085C474.664 444.138 473.875 446.098 472.835 447.854C471.795 449.61 470.525 451.128 469.096 452.32L467.922 449.576C470.199 447.675 471.92 444.769 472.705 441.497C473.49 438.224 473.276 434.854 472.109 432.127L474.4 430.214Z" fill="white"/>
</g>
<defs>
<filter id="filter0_d_2_34" x="114.537" y="345.866" width="300.363" height="95.5671" filterUnits="userSpaceOnUse" color-interpolation-filters="sRGB">
<feFlood flood-opacity="0" result="BackgroundImageFix"/>
<feColorMatrix in="SourceAlpha" type="matrix" values="0 0 0 0 0 0 0 0 0 0 0 0 0 0 0 0 0 0 127 0" result="hardAlpha"/>
<feOffset dy="4"/>
<feGaussianBlur stdDeviation="2"/>
<feComposite in2="hardAlpha" operator="out"/>
<feColorMatrix type="matrix" values="0 0 0 0 0 0 0 0 0 0 0 0 0 0 0 0 0 0 0.25 0"/>
<feBlend mode="normal" in2="BackgroundImageFix" result="effect1_dropShadow_2_34"/>
<feBlend mode="normal" in="SourceGraphic" in2="effect1_dropShadow_2_34" result="shape"/>
</filter>
<linearGradient id="paint0_linear_2_34" x1="347.813" y1="511.059" x2="-110.622" y2="-58.5916" gradientUnits="userSpaceOnUse">
<stop stop-color="#FF6666"/>
<stop offset="1" stop-color="white" stop-opacity="0"/>
</linearGradient>
<linearGradient id="paint1_linear_2_34" x1="347.813" y1="511.059" x2="-110.622" y2="-58.5916" gradientUnits="userSpaceOnUse">
<stop stop-color="#FF6666"/>
<stop offset="0.886229" stop-color="#FFAEAE" stop-opacity="0.53125"/>
<stop offset="1" stop-color="white" stop-opacity="0"/>
</linearGradient>
</defs>
</svg>
